<svg width="14" height="14" viewBox="0 0 14 14" fill="none" xmlns="http://www.w3.org/2000/svg">
<path d="M4.30471 1.12872C4.27999 1.0333 4.27431 0.933948 4.28801 0.836339C4.30171 0.738729 4.33452 0.644778 4.38455 0.559856C4.43459 0.474934 4.50087 0.400708 4.57962 0.341422C4.65836 0.282136 4.74802 0.238952 4.84346 0.214341C5.95031 -0.0714469 7.11161 -0.0714469 8.21846 0.214341C8.31597 0.236915 8.40797 0.278778 8.48904 0.337461C8.57012 0.396144 8.63863 0.470461 8.69054 0.556033C8.74245 0.641605 8.7767 0.736701 8.79129 0.835717C8.80587 0.934734 8.80049 1.03567 8.77546 1.13257C8.75043 1.22948 8.70626 1.32039 8.64555 1.39996C8.58484 1.47953 8.50882 1.54614 8.42196 1.59587C8.33511 1.6456 8.23918 1.67745 8.13982 1.68953C8.04047 1.70161 7.9397 1.69368 7.84346 1.66622C6.98254 1.44424 6.07938 1.44424 5.21846 1.66622C5.02602 1.716 4.82168 1.68736 4.65035 1.58657C4.47901 1.48579 4.3547 1.32111 4.30471 1.12872ZM1.71471 2.02184C0.914055 2.83758 0.333443 3.84311 0.0272112 4.94434C0.000909533 5.0393 -0.00642145 5.13852 0.00563729 5.23631C0.017696 5.33411 0.0489081 5.42857 0.0974897 5.5143C0.146071 5.60003 0.21107 5.67535 0.288772 5.73594C0.366473 5.79654 0.455355 5.84123 0.550336 5.86747C0.615518 5.88525 0.682773 5.89428 0.750336 5.89434C0.914334 5.89427 1.07379 5.84044 1.20428 5.7411C1.33477 5.64177 1.4291 5.5024 1.47284 5.34434C1.711 4.48817 2.1626 3.70647 2.78534 3.07247C2.85432 3.00217 2.90878 2.91897 2.94562 2.82762C2.98245 2.73628 3.00093 2.63857 3 2.54008C2.99907 2.44159 2.97875 2.34425 2.9402 2.25362C2.90166 2.16298 2.84563 2.08083 2.77534 2.01184C2.70504 1.94286 2.62184 1.88839 2.53049 1.85156C2.43915 1.81473 2.34144 1.79625 2.24295 1.79718C2.14446 1.79811 2.04712 1.81842 1.95649 1.85697C1.86585 1.89552 1.7837 1.95154 1.71471 2.02184ZM1.47221 8.15559C1.41579 7.96767 1.28798 7.80933 1.11618 7.71455C0.944376 7.61977 0.742274 7.59609 0.553217 7.64859C0.364159 7.70109 0.203203 7.82558 0.10487 7.99538C0.0065367 8.16517 -0.0213428 8.36673 0.0272112 8.55684C0.332995 9.65862 0.913654 10.6647 1.71471 11.4806C1.85668 11.6096 2.04269 11.6793 2.23449 11.6754C2.4263 11.6715 2.60931 11.5942 2.74588 11.4595C2.88245 11.3248 2.9622 11.1428 2.96872 10.9511C2.97525 10.7594 2.90806 10.5724 2.78096 10.4287C2.15941 9.79395 1.70911 9.01183 1.47221 8.15559ZM7.84346 11.835C6.98258 12.0572 6.07934 12.0572 5.21846 11.835C5.12222 11.8075 5.02145 11.7996 4.9221 11.8117C4.82275 11.8237 4.72682 11.8556 4.63996 11.9053C4.55311 11.955 4.47708 12.0217 4.41637 12.1012C4.35566 12.1808 4.31149 12.2717 4.28646 12.3686C4.26143 12.4655 4.25605 12.5664 4.27064 12.6655C4.28522 12.7645 4.31948 12.8596 4.37138 12.9451C4.42329 13.0307 4.4918 13.105 4.57288 13.1637C4.65395 13.2224 4.74596 13.2643 4.84346 13.2868C5.95031 13.5726 7.11161 13.5726 8.21846 13.2868C8.31597 13.2643 8.40797 13.2224 8.48904 13.1637C8.57012 13.105 8.63863 13.0307 8.69054 12.9451C8.74245 12.8596 8.7767 12.7645 8.79129 12.6655C8.80587 12.5664 8.80049 12.4655 8.77546 12.3686C8.75043 12.2717 8.70626 12.1808 8.64555 12.1012C8.58484 12.0217 8.50882 11.955 8.42196 11.9053C8.33511 11.8556 8.23918 11.8237 8.13982 11.8117C8.04047 11.7996 7.9397 11.8075 7.84346 11.835ZM12.5135 7.63372C12.3221 7.58154 12.1179 7.60729 11.9455 7.70533C11.773 7.80337 11.6465 7.96571 11.5935 8.15684C11.3553 9.01301 10.9037 9.79471 10.281 10.4287C10.1416 10.5706 10.0642 10.7621 10.066 10.961C10.0677 11.1599 10.1484 11.3499 10.2903 11.4893C10.4322 11.6287 10.6237 11.7061 10.8226 11.7043C11.0215 11.7026 11.2116 11.6219 11.351 11.48C12.1515 10.6639 12.7321 9.6582 13.0385 8.55684C13.0647 8.46171 13.0719 8.36234 13.0597 8.26441C13.0475 8.16649 13.0161 8.07194 12.9672 7.98618C12.9184 7.90043 12.8531 7.82515 12.7752 7.76467C12.6972 7.70418 12.608 7.65968 12.5128 7.63372H12.5135ZM11.5903 5.34559C11.6468 5.53351 11.7746 5.69185 11.9464 5.78663C12.1182 5.88141 12.3203 5.90509 12.5093 5.85259C12.6984 5.80009 12.8593 5.6756 12.9577 5.50581C13.056 5.33601 13.0839 5.13445 13.0353 4.94434C12.7296 3.84256 12.1489 2.83651 11.3478 2.02059C11.2801 1.94488 11.1978 1.88371 11.1057 1.84078C11.0137 1.79786 10.9138 1.77408 10.8123 1.77089C10.7108 1.7677 10.6097 1.78516 10.5151 1.82221C10.4206 1.85926 10.3345 1.91514 10.2622 1.98645C10.1899 2.05775 10.1328 2.14301 10.0944 2.23704C10.056 2.33108 10.0371 2.43193 10.0389 2.53348C10.0406 2.63503 10.063 2.73517 10.1046 2.82782C10.1462 2.92047 10.2062 3.0037 10.281 3.07247C10.9025 3.70724 11.3528 4.48935 11.5897 5.34559H11.5903Z" fill="#00A96E"/>
</svg>
